# xmcd
#
# Track frame offsets:
#	150
#	11709
#	25639
#	35174
#	45871
#	55710
#	70610
#	79955
#	89340
#	102447
#
# Disc length: 1518 seconds
#
# Revision: 1
# Processed by: cddbd v1.5.2PL0 Copyright (c) Steve Scherf et al.
# Submitted via: audiograbber 1.83.01
#
DISCID=7305ec0a
DTITLE=Porter Wagoner - Down In The Alley
DYEAR=1970
DGENRE=Country
TTITLE0=Here's A Toast To Mama
TTITLE1=Sidewalks Of Chicaga
TTITLE2=The Silent Kind
TTITLE3=The Alley
TTITLE4=The Town Drunk
TTITLE5=Mama
TTITLE6=Bottle Of Wine
TTITLE7=One More Dime
TTITLE8=I Judged A Man
TTITLE9=When I Drink My Wine
EXTD=
EXTT0=
EXTT1=
EXTT2=
EXTT3=
EXTT4=
EXTT5=
EXTT6=
EXTT7=
EXTT8=
EXTT9=
PLAYORDER=
